<?xml version="1.0" standalone="no"?><!DOCTYPE svg PUBLIC "-//W3C//DTD SVG 1.1//EN" "http://www.w3.org/Graphics/SVG/1.1/DTD/svg11.dtd"><svg t="1583665150953" class="icon" viewBox="0 0 1024 1024" version="1.1" xmlns="http://www.w3.org/2000/svg" p-id="13295" xmlns:xlink="http://www.w3.org/1999/xlink" width="200" height="200"><defs><style type="text/css"></style></defs><path d="M685.226667 983.843137H67.814902c-35.137255 0-60.235294-25.098039-60.235294-60.235294V65.254902C7.579608 30.117647 32.677647 5.019608 67.814902 5.019608H906.089412c35.137255 0 60.235294 25.098039 60.235294 60.235294v647.529412h-40.156863V65.254902c0-10.039216-10.039216-20.078431-20.078431-20.078431H67.814902c-10.039216 0-20.078431 10.039216-20.078431 20.078431v858.352941c0 10.039216 10.039216 20.078431 20.078431 20.078432h617.411765v40.156862z" fill="#3880ff" p-id="13296"></path><path d="M343.893333 291.137255H148.128627c-10.039216 0-20.078431-10.039216-20.078431-20.078431s10.039216-20.078431 20.078431-20.078432h195.764706c10.039216 0 20.078431 10.039216 20.078432 20.078432s-10.039216 20.078431-20.078432 20.078431zM343.893333 451.764706H148.128627c-10.039216 0-15.058824-10.039216-15.058823-20.078431s10.039216-20.078431 20.078431-20.078432h195.764706c10.039216 0 20.078431 10.039216 20.078432 20.078432S353.932549 451.764706 343.893333 451.764706zM343.893333 612.392157H148.128627c-10.039216 0-20.078431-10.039216-20.078431-20.078432s10.039216-20.078431 20.078431-20.078431h195.764706c10.039216 0 20.078431 10.039216 20.078432 20.078431s-10.039216 20.078431-20.078432 20.078432zM830.795294 291.137255H424.207059c-10.039216 0-20.078431-10.039216-20.078432-20.078431s10.039216-20.078431 20.078432-20.078432h406.588235c10.039216 0 20.078431 10.039216 20.078431 20.078432s-5.019608 20.078431-20.078431 20.078431zM830.795294 451.764706H424.207059c-10.039216 0-20.078431-10.039216-20.078432-20.078431s10.039216-20.078431 20.078432-20.078432h406.588235c10.039216 0 20.078431 10.039216 20.078431 20.078432s-5.019608 20.078431-20.078431 20.078431zM830.795294 612.392157H424.207059c-10.039216 0-20.078431-10.039216-20.078432-20.078432s10.039216-20.078431 20.078432-20.078431h406.588235c10.039216 0 20.078431 10.039216 20.078431 20.078431s-5.019608 20.078431-20.078431 20.078432zM660.128627 165.647059H484.442353c-10.039216 0-20.078431-10.039216-20.078431-20.078432s10.039216-20.078431 20.078431-20.078431h175.686274c10.039216 0 20.078431 10.039216 20.078432 20.078431s-10.039216 20.078431-20.078432 20.078432zM273.618824 762.980392c-5.019608 0-10.039216 0-10.039216-5.019608l-45.176471-35.137255c-10.039216-5.019608-10.039216-20.078431-5.019608-25.098039 5.019608-10.039216 20.078431-10.039216 25.09804-5.019608l45.17647 35.137255c10.039216 5.019608 10.039216 20.078431 5.019608 25.098039-5.019608 10.039216-10.039216 10.039216-15.058823 10.039216z" fill="#3880ff" p-id="13297"></path><path d="M273.618824 762.980392c-5.019608 0-10.039216 0-15.058824-5.019608-5.019608-10.039216-5.019608-20.078431 5.019608-25.098039l40.156863-40.156863c10.039216-5.019608 20.078431-5.019608 25.098039 5.019608 5.019608 10.039216 5.019608 20.078431-5.019608 25.098039l-45.176471 35.137255c0 5.019608-5.019608 5.019608-5.019607 5.019608z" fill="#3880ff" p-id="13298"></path><path d="M343.893333 762.980392H203.344314c-10.039216 0-20.078431-10.039216-20.078432-20.078431s10.039216-20.078431 20.078432-20.078432h140.549019c10.039216 0 20.078431 10.039216 20.078432 20.078432s-10.039216 20.078431-20.078432 20.078431zM343.893333 813.176471H203.344314c-10.039216 0-20.078431-10.039216-20.078432-20.078432s10.039216-20.078431 20.078432-20.078431h140.549019c10.039216 0 20.078431 10.039216 20.078432 20.078431s-10.039216 20.078431-20.078432 20.078432z" fill="#3880ff" p-id="13299"></path><path d="M273.618824 878.431373c-10.039216 0-20.078431-10.039216-20.078432-20.078432v-115.45098c0-10.039216 10.039216-20.078431 20.078432-20.078432s20.078431 10.039216 20.078431 20.078432v115.45098c-5.019608 15.058824-10.039216 20.078431-20.078431 20.078432zM830.795294 1024c-95.372549 0-170.666667-75.294118-170.666667-170.666667 0-45.176471 20.078431-90.352941 50.196079-120.470588 5.019608-5.019608 20.078431-5.019608 25.098039 0 5.019608 5.019608 5.019608 20.078431 0 25.098039-25.098039 25.098039-40.156863 60.235294-40.156863 95.372549 0 75.294118 60.235294 135.529412 135.529412 135.529412s135.529412-60.235294 135.529412-135.529412-60.235294-135.529412-135.529412-135.529411c-10.039216 0-20.078431-10.039216-20.078431-20.078432s10.039216-20.078431 20.078431-20.078431c95.372549 0 170.666667 75.294118 170.666667 170.666666s-75.294118 175.686275-170.666667 175.686275z" fill="#3880ff" p-id="13300"></path><path d="M830.795294 798.117647c-10.039216 0-20.078431-10.039216-20.078431-20.078431v-80.313726c0-10.039216 10.039216-20.078431 20.078431-20.078431s20.078431 10.039216 20.078431 20.078431v80.313726c0 10.039216-5.019608 20.078431-20.078431 20.078431z" fill="#3880ff" p-id="13301"></path><path d="M835.814902 878.431373c-10.039216 0-25.098039-5.019608-35.137255-15.058824-15.058824-15.058824-85.333333-85.333333-60.235294-110.431373 25.098039-25.098039 95.372549 45.176471 110.431372 60.235295 20.078431 20.078431 25.098039 45.176471 10.039216 60.235294-5.019608 5.019608-15.058824 5.019608-25.098039 5.019608z" fill="#3880ff" p-id="13302"></path></svg>