<?xml version="1.0" standalone="no"?><!DOCTYPE svg PUBLIC "-//W3C//DTD SVG 1.1//EN" "http://www.w3.org/Graphics/SVG/1.1/DTD/svg11.dtd"><svg t="1565168084769" class="icon" viewBox="0 0 1024 1024" version="1.1" xmlns="http://www.w3.org/2000/svg" p-id="11957" xmlns:xlink="http://www.w3.org/1999/xlink" width="200" height="200"><defs><style type="text/css"></style></defs><path d="M651.142095 285.42781L682.666667 316.952381V219.428571h-97.52381l31.524572 31.524572L512 355.620571l-104.667429-104.667428a24.380952 24.380952 0 0 0-34.474666 0l-146.285715 146.285714a24.380952 24.380952 0 0 0 34.474667 34.474667L390.095238 302.665143l104.667429 104.667428a24.380952 24.380952 0 0 0 34.474666 0l121.904762-121.904761zM170.666667 73.142857h585.142857l146.285714 146.285714v682.666667a48.761905 48.761905 0 0 1-48.761905 48.761905H170.666667a48.761905 48.761905 0 0 1-48.761905-48.761905V121.904762a48.761905 48.761905 0 0 1 48.761905-48.761905z m560.761904 48.761905v121.904762h121.904762l-121.904762-121.904762zM243.809524 658.285714a24.380952 24.380952 0 0 0 0 48.761905h536.380952a24.380952 24.380952 0 0 0 0-48.761905H243.809524z m0-121.904762a24.380952 24.380952 0 0 0 0 48.761905h536.380952a24.380952 24.380952 0 0 0 0-48.761905H243.809524z m0 243.809524a24.380952 24.380952 0 0 0 0 48.761905h536.380952a24.380952 24.380952 0 0 0 0-48.761905H243.809524z" p-id="11958"></path></svg>