<?xml version="1.0" standalone="no"?><!DOCTYPE svg PUBLIC "-//W3C//DTD SVG 1.1//EN" "http://www.w3.org/Graphics/SVG/1.1/DTD/svg11.dtd"><svg t="1583662967631" class="icon" viewBox="0 0 1024 1024" version="1.1" xmlns="http://www.w3.org/2000/svg" p-id="10268" xmlns:xlink="http://www.w3.org/1999/xlink" width="200" height="200"><defs><style type="text/css"></style></defs><path d="M586.35776 938.94144c-30.74048 2.65216-62.65344 3.98848-94.83776 3.98848-208.36864 0-392.53504-54.32832-392.53504-91.72992 0-4.78208-1.6128-9.12896-4.26496-12.68224V674.3552c65.69472 47.65184 257.42848 72.30976 396.8 72.30976a21.32992 21.32992 0 0 0 21.32992-21.34016A21.32992 21.32992 0 0 0 491.52 703.99488c-208.36864 0-392.53504-54.32832-392.53504-91.72992a21.0688 21.0688 0 0 0-4.26496-12.68224V435.42528C160.41472 483.08224 352.14848 507.73504 491.52 507.73504c5.78048 0 11.53536-0.00512 17.24928-0.1024a21.28384 21.28384 0 0 0 20.54144-22.01088 21.28384 21.28384 0 0 0-20.84352-20.55168h-0.32256c-5.50912 0-11.0592 0.05632-16.61952 0.05632-208.36864 0-392.53504-54.38976-392.53504-91.79136a21.0944 21.0944 0 0 0-4.26496-12.68224V196.49024C160.41472 244.14208 352.14848 268.8 491.52 268.8c133.59616 0 319.46752-22.656 388.26496-66.51904V396.8a21.33504 21.33504 0 1 0 42.66496 0V156.23168c2.7392-6.96832 4.27008-14.2336 4.27008-21.82656C926.72 46.16704 682.3424 0 491.52 0 305.71008 0 66.53952 43.78624 56.79104 127.54944a21.12 21.12 0 0 0-4.74112 13.25056v716.8A21.2992 21.2992 0 0 0 61.44 875.26912c31.71328 72.54016 257.44896 110.33088 430.08 110.33088 33.40288 0 66.54976-1.38752 98.5088-4.14208a21.34016 21.34016 0 0 0 19.42016-23.0912c-1.01888-11.73504-11.35104-20.35712-23.0912-19.42528zM491.52 42.67008c190.98112 0 369.7408 45.63456 389.7088 82.05312-0.94208 2.4064-1.42336 4.96128-1.44384 7.54688v14.18752c-24.064 35.9936-201.41568 79.67744-388.26496 79.67744-208.36864 0-392.53504-54.32832-392.53504-91.73504S283.15136 42.67008 491.52 42.67008z" p-id="10269" fill="#3880ff"></path><path d="M589.75744 698.2912a22.99904 22.99904 0 0 1-16.6912-7.24992c-8.42752-9.27232-7.92576-23.59808 1.35168-32.03072l152.56576-140.60032c8.9344-8.25856 22.58944-7.92064 31.35488 0.512l75.19232 73.67168 109.40928-123.5712c8.25856-9.44128 22.7584-10.28608 32.03072-2.02752 9.44128 8.26368 10.28608 22.7584 2.02752 32.03584l-125.25568 141.44a21.99552 21.99552 0 0 1-16.18944 7.5776 23.31648 23.31648 0 0 1-16.6912-6.4l-76.87168-75.19232-136.88832 125.93152a23.06048 23.06048 0 0 1-15.34464 5.90336z" p-id="10270" fill="#3880ff"></path><path d="M993.5104 442.04032l-94.2336 3.03616c-6.24128 0.16896-9.27744 7.92576-4.5568 12.30848l98.11456 91.20256c4.55168 4.20864 12.13952 0.83968 11.8016-5.4016l-3.87584-94.2336c-0.16384-4.0448-3.37408-7.07584-7.24992-6.912zM988.11392 924.16v-291.45088c0-10.28096-10.44992-18.70848-23.26016-18.70848-12.81536 0-23.2704 8.42752-23.2704 18.70848v291.28192h46.53056v0.16896z m-343.07072 0v-188.61056c0-10.78784-11.12064-19.5584-24.61184-19.5584s-24.61184 8.77056-24.61184 19.5584V924.16h49.22368zM757.83168 924.16v-256.04096c0-10.62912-11.12576-19.22048-24.61696-19.22048-13.48608 0-24.61184 8.59136-24.61184 19.22048v255.872h49.22368v0.16896zM873.81504 924.16v-215.41888c0-10.44992-10.96192-18.88256-24.27392-18.88256s-24.27392 8.42752-24.27392 18.88256V924.16h48.54784z" p-id="10271" fill="#3880ff"></path></svg>