<?xml version="1.0" standalone="no"?><!DOCTYPE svg PUBLIC "-//W3C//DTD SVG 1.1//EN" "http://www.w3.org/Graphics/SVG/1.1/DTD/svg11.dtd"><svg t="1583665465380" class="icon" viewBox="0 0 1024 1024" version="1.1" xmlns="http://www.w3.org/2000/svg" p-id="16587" xmlns:xlink="http://www.w3.org/1999/xlink" width="200" height="200"><defs><style type="text/css"></style></defs><path d="M548.530013 1023.972396H145.187217a95.152528 95.152528 0 0 1-97.425796-93.853517V95.179807a95.152528 95.152528 0 0 1 97.425796-95.152528h696.919195a95.152528 95.152528 0 0 1 97.425796 93.853517V559.900854a38.970318 38.970318 0 0 1-77.940637 0V95.179807a17.211891 17.211891 0 0 0-18.186148-15.91288H145.187217a17.211891 17.211891 0 0 0-18.186148 15.91288V930.118879a17.211891 17.211891 0 0 0 18.186148 15.91288h403.342796a38.970318 38.970318 0 0 1 0 77.940637z" p-id="16588" fill="#3880ff"></path><path d="M700.189502 644.011791a109.441644 109.441644 0 1 1-109.116891 109.116892 109.441644 109.441644 0 0 1 109.441644-109.116892m0-77.940637a187.382281 187.382281 0 1 0 187.057529 187.057529 187.057528 187.057528 0 0 0-187.057529-187.057529z" p-id="16589" fill="#3880ff"></path><path d="M934.336166 1023.972396a37.99606 37.99606 0 0 1-26.629718-10.716838L795.991535 907.386193a39.392497 39.392497 0 1 1 54.883199-56.506961l111.714913 105.869365a38.970318 38.970318 0 0 1-26.954471 67.223799zM224.102112 248.463059H692.070686a38.645566 38.645566 0 1 0 0-76.966379H224.102112a38.645566 38.645566 0 0 0 0 76.966379zM224.102112 445.58792h274.09124a38.645566 38.645566 0 1 0 0-76.966379H224.102112a38.645566 38.645566 0 0 0 0 76.966379z" p-id="16590" fill="#3880ff"></path><path d="M325.42494 534.570147a139.968394 139.968394 0 1 0 139.968394 139.968394 139.968394 139.968394 0 0 0-139.968394-139.968394z m0 254.281328a114.312934 114.312934 0 1 1 112.689171-114.312934 113.338676 113.338676 0 0 1-112.689171 114.312934z" p-id="16591" fill="#3880ff"></path><path d="M333.543757 678.760325a7.794064 7.794064 0 0 1-1.623764-4.546537v-62.677262a16.237633 16.237633 0 0 0-2.598021-8.443569 12.340601 12.340601 0 0 0-13.314859-3.897032 12.015848 12.015848 0 0 0-7.794063 11.366343v67.873305a14.289117 14.289117 0 0 0 4.871289 11.691095c12.340601 12.015848 24.356449 24.356449 36.69705 36.69705 3.247527 3.247527 6.1703 6.495053 9.417827 9.417827a11.820997 11.820997 0 1 0 16.237633-17.211891z" p-id="16592" fill="#3880ff"></path></svg>