<?xml version="1.0" standalone="no"?><!DOCTYPE svg PUBLIC "-//W3C//DTD SVG 1.1//EN" "http://www.w3.org/Graphics/SVG/1.1/DTD/svg11.dtd"><svg t="1565168155556" class="icon" viewBox="0 0 1024 1024" version="1.1" xmlns="http://www.w3.org/2000/svg" p-id="12568" xmlns:xlink="http://www.w3.org/1999/xlink" width="200" height="200"><defs><style type="text/css"></style></defs><path d="M264 824m-24 0a24 24 0 1 0 48 0 24 24 0 1 0-48 0Z" fill="#666666" p-id="12569"></path><path d="M264 624c-12.8 0-24 11.2-24 24v112c0 12.8 11.2 24 24 24s24-11.2 24-24v-112c0-12.8-11.2-24-24-24zM668.8 96H320c-30.4 1.6-46.4 17.6-48 48v339.2h8c67.2 0 124.8 24 174.4 72 48 48 72 105.6 72 174.4 0 67.2-24 124.8-72 172.8-9.6 9.6-19.2 19.2-30.4 25.6h470.4c41.6 0 62.4-20.8 64-59.2v-528C958.4 246.4 804.8 96 668.8 96zM369.6 366.4H368c-25.6 0-46.4-20.8-46.4-46.4s20.8-46.4 46.4-46.4h1.6c25.6 0 46.4 20.8 46.4 46.4s-20.8 46.4-46.4 46.4zM788.8 832h-224c9.6-20.8 14.4-41.6 14.4-64h208c17.6 0 32 14.4 32 32s-12.8 32-30.4 32z m0-160h-208c-1.6-27.2-8-48-14.4-64h224c17.6 0 32 14.4 32 32s-16 32-33.6 32z m0-160H528c-14.4-27.2-35.2-48-59.2-64h320c17.6 0 32 14.4 32 32s-14.4 32-32 32z m11.2-161.6H496c-17.6 0-32-14.4-32-32s14.4-32 32-32h304c17.6 0 32 14.4 32 32s-14.4 32-32 32z" fill="#666666" p-id="12570"></path><path d="M264 528C153.6 528 64 617.6 64 728S153.6 928 264 928 464 838.4 464 728 374.4 528 264 528z m0 352C180.8 880 112 811.2 112 728s68.8-152 152-152 152 68.8 152 152-68.8 152-152 152z" fill="#666666" p-id="12571"></path></svg>