<?xml version="1.0" standalone="no"?><!DOCTYPE svg PUBLIC "-//W3C//DTD SVG 1.1//EN" "http://www.w3.org/Graphics/SVG/1.1/DTD/svg11.dtd"><svg t="1585016191483" class="icon" viewBox="0 0 1024 1024" version="1.1" xmlns="http://www.w3.org/2000/svg" p-id="2765" xmlns:xlink="http://www.w3.org/1999/xlink" width="512" height="512"><defs><style type="text/css"></style></defs><path d="M933.146945 131.215287L529.992732 2.340518a69.849832 69.849832 0 0 0-35.839181 0L90.999337 131.215287a26.842815 26.842815 0 0 0-17.91959 23.624602v536.856301a40.885923 40.885923 0 0 0 14.628237 28.817627l408.932367 298.928024A25.599415 25.599415 0 0 0 512 1023.976595a25.379991 25.379991 0 0 0 14.628237-4.534754l408.932367-298.928024a40.520217 40.520217 0 0 0 14.628237-28.817627v-536.856301a26.403968 26.403968 0 0 0-17.041896-23.624602z m-67.509314 539.123677L512 928.893054 158.43551 670.485246V194.409271L512 81.332998l353.56449 113.076273z" p-id="2766" fill="#3880ff"></path><path d="M384.222349 446.673219a19.528696 19.528696 0 0 0-15.43279-7.314119h-65.827067a8.923225 8.923225 0 0 0-7.679824 14.116249l149.93943 193.677859a19.894402 19.894402 0 0 0 30.86558 0l252.190807-325.77084a8.923225 8.923225 0 0 0-7.679824-14.116248h-65.827067a19.674979 19.674979 0 0 0-15.43279 7.314118L460.289182 545.852666z" p-id="2767" fill="#3880ff"></path></svg>