<?xml version="1.0" standalone="no"?><!DOCTYPE svg PUBLIC "-//W3C//DTD SVG 1.1//EN" "http://www.w3.org/Graphics/SVG/1.1/DTD/svg11.dtd"><svg t="1583666225472" class="icon" viewBox="0 0 1024 1024" version="1.1" xmlns="http://www.w3.org/2000/svg" p-id="25984" xmlns:xlink="http://www.w3.org/1999/xlink" width="200" height="200"><defs><style type="text/css"></style></defs><path d="M895.785576 1023.922883 128.137307 1023.922883C57.603009 1023.922883 0 966.319873 0 895.785576L0 128.137307C0 57.603009 57.603009 0 128.137307 0l767.648269 0c70.534297 0 128.137307 57.603009 128.137307 128.137307l0 767.648269C1023.922883 966.319873 966.319873 1023.922883 895.785576 1023.922883zM959.266443 128.137307c0-35.267149-28.213719-63.480868-63.480868-63.480868L128.137307 64.656439c-35.267149 0-63.480868 28.213719-63.480868 63.480868l0 767.648269c0 35.267149 28.213719 63.480868 63.480868 63.480868l767.648269 0c35.267149 0 63.480868-28.213719 63.480868-63.480868L959.266443 128.137307zM799.388703 191.618174l-576.030095 0c-17.633574 0-31.740434-14.106859-31.740434-31.740434s14.106859-31.740434 31.740434-31.740434l576.030095 0c17.633574 0 31.740434 14.106859 31.740434 31.740434S817.022277 191.618174 799.388703 191.618174zM487.862223 265.679187c7.05343-7.05343 15.282431-9.404573 24.687004-9.404573 8.229001 0 17.633574 2.351143 24.687004 9.404573l157.526597 191.618174c12.931288 12.931288 12.931288 32.916005 0 45.847293-12.931288 12.931288-32.916005 12.931288-45.847293 0l-105.801446-128.137307 0 489.037795c0 17.633574-14.106859 31.740434-31.740434 31.740434-17.633574 0-31.740434-14.106859-31.740434-31.740434l0-487.862223-104.625874 126.961735c-12.931288 12.931288-32.916005 12.931288-45.847293 0-12.931288-12.931288-12.931288-32.916005 0-45.847293L487.862223 265.679187z" p-id="25985" fill="#3880ff"></path></svg>