<?xml version="1.0" standalone="no"?><!DOCTYPE svg PUBLIC "-//W3C//DTD SVG 1.1//EN" "http://www.w3.org/Graphics/SVG/1.1/DTD/svg11.dtd"><svg t="1583631841542" class="icon" viewBox="0 0 1026 1024" version="1.1" xmlns="http://www.w3.org/2000/svg" p-id="5684" xmlns:xlink="http://www.w3.org/1999/xlink" width="200.390625" height="200"><defs><style type="text/css"></style></defs><path d="M520.533333 535.466667c70.4-40.533333 117.333333-115.2 117.333334-200.533334 0-128-102.4-230.4-230.4-230.4-128 0-230.4 102.4-230.4 230.4 0 85.333333 46.933333 160 117.333333 200.533334C125.866667 586.666667 0 742.4 0 928v44.8h817.066667v-44.8c0-185.6-125.866667-341.333333-296.533334-392.533333zM407.466667 181.333333c85.333333 0 153.6 68.266667 153.6 153.6S492.8 490.666667 407.466667 490.666667s-153.6-68.266667-153.6-153.6 70.4-155.733333 153.6-155.733334zM93.866667 883.2c21.333333-153.6 153.6-273.066667 313.6-273.066667s292.266667 119.466667 313.6 273.066667H93.866667z" p-id="5685" fill="#3880ff"></path><path d="M838.4 529.066667c32-40.533333 49.066667-91.733333 49.066667-142.933334 0-130.133333-104.533333-234.666667-234.666667-234.666666v85.333333c83.2 0 149.333333 66.133333 149.333333 149.333333 0 46.933333-23.466667 91.733333-61.866666 121.6L674.133333 554.666667l74.666667 27.733333c115.2 40.533333 192 151.466667 192 270.933333h85.333333c0-134.4-72.533333-258.133333-187.733333-324.266666z" p-id="5686" fill="#3880ff"></path></svg>