<?xml version="1.0" standalone="no"?><!DOCTYPE svg PUBLIC "-//W3C//DTD SVG 1.1//EN" "http://www.w3.org/Graphics/SVG/1.1/DTD/svg11.dtd"><svg t="1565168033089" class="icon" viewBox="0 0 1024 1024" version="1.1" xmlns="http://www.w3.org/2000/svg" p-id="11588" xmlns:xlink="http://www.w3.org/1999/xlink" width="200" height="200"><defs><style type="text/css"></style></defs><path d="M810.88 339.392v-71.68c0-2.624-0.64-4.8-1.28-6.976A16.512 16.512 0 0 0 808.256 256c-0.896-2.048-1.984-3.52-2.752-4.608-1.984-3.072-3.008-4.224-3.264-4.224l-1.344-1.472a15.488 15.488 0 0 0-4.224-2.88 23.104 23.104 0 0 0-11.456-4.48 17.664 17.664 0 0 0-5.248-0.768H596.736a30.976 30.976 0 0 0 0 61.824h113.856L503.232 529.92 320 360.192 146.304 553.216c-5.504 6.08-8.32 13.952-7.872 22.208s4.032 15.872 10.176 21.312a30.464 30.464 0 0 0 43.584-2.24l131.712-146.368 183.232 169.728 241.984-268.864v52.8l61.76-62.4z" p-id="11589"></path><path d="M64.384 845.312V98.816a37.12 37.12 0 0 1 36.992-36.992h746.496a37.12 37.12 0 0 1 36.992 36.992v260.096l61.888 61.12v-321.28C946.752 44.352 902.4 0 847.872 0H101.376C46.976 0 2.688 44.352 2.688 98.816v746.496c0 54.464 44.288 98.752 98.752 98.752h222.272v-61.824H101.376a37.056 37.056 0 0 1-36.992-36.928z m0 0" p-id="11590"></path><path d="M780.096 541.632c-132.352 0-241.152 108.8-241.152 241.216S647.744 1024 780.096 1024s241.28-108.8 241.28-241.216-105.984-241.152-241.28-241.152z m8.896 317.696l-32.384 32.32-35.392-32.32-73.472-70.656 35.264-32.32 76.48 70.592 141.248-138.24 32.256 32.384-144 138.24z" p-id="11591"></path></svg>