<?xml version="1.0" standalone="no"?><!DOCTYPE svg PUBLIC "-//W3C//DTD SVG 1.1//EN" "http://www.w3.org/Graphics/SVG/1.1/DTD/svg11.dtd"><svg t="1583666750304" class="icon" viewBox="0 0 1024 1024" version="1.1" xmlns="http://www.w3.org/2000/svg" p-id="3956" xmlns:xlink="http://www.w3.org/1999/xlink" width="200" height="200"><defs><style type="text/css"></style></defs><path d="M651.03 557.609v-32.983H260.257v43.419H637.12c4.57-3.594 9.122-7.123 13.91-10.435zM260.257 264.115h390.79v43.417h-390.79z m0 130.254h390.79v43.414h-390.79z m521.115 195.345c-119.697 0-216.84 97.057-216.84 217.306 0 119.924 97.134 216.979 216.84 216.979 120.177 0 217.436-97.134 217.436-216.98 0-120.286-97.182-217.305-217.436-217.305z m0.054 390.87c-95.72 0-173.502-77.68-173.502-173.567 0-96.248 77.733-173.872 173.502-173.872 96.134 0 173.872 77.606 173.872 173.872 0 95.782-77.726 173.567-173.872 173.567z m-521.15-282.283h280.85c5.798-15.145 12.64-29.6 20.677-43.42H260.275v43.42z" p-id="3957" fill="#3880ff"></path><path d="M759.905 837.56l0.014 0.01-0.08 0.055 0.066-0.065-61.37-61.392-30.76 30.8L759.91 899.1l135.554-135.518-30.792-30.791z" p-id="3958" fill="#3880ff"></path><path d="M565.057 1001.971h-406.4c-57.286 0-103.894-46.607-103.894-103.894V121.44c0-57.286 46.608-103.894 103.894-103.894h634.398c57.287 0 103.894 46.608 103.894 103.894v431.199h-54.186v-431.2c0-27.41-22.298-49.706-49.708-49.706H158.657c-27.41 0-49.707 22.298-49.707 49.707v776.638c0 27.41 22.298 49.707 49.707 49.707h406.399v54.187z" p-id="3959" fill="#3880ff"></path></svg>