<?xml version="1.0" standalone="no"?><!DOCTYPE svg PUBLIC "-//W3C//DTD SVG 1.1//EN" "http://www.w3.org/Graphics/SVG/1.1/DTD/svg11.dtd"><svg t="1583666639297" class="icon" viewBox="0 0 1194 1024" version="1.1" xmlns="http://www.w3.org/2000/svg" p-id="2343" xmlns:xlink="http://www.w3.org/1999/xlink" width="233.203125" height="200"><defs><style type="text/css"></style></defs><path d="M1006.336 0h-819.2C102.656 0 75.776 27.306667 75.776 110.08v661.333333c0 80.298667 26.88 111.189333 111.530667 111.189334h819.114666c82.858667 0 112.64-17.578667 112.64-111.189334V110.08c0-71.850667-22.954667-110.08-112.64-110.08z m56.064 792.064a38.570667 38.570667 0 0 1-38.144 37.546667H166.314667a37.546667 37.546667 0 0 1-36.949334-37.546667V89.429333c0-20.309333 16.384-36.437333 36.949334-36.437333h857.941333a37.546667 37.546667 0 0 1 38.144 36.437333v702.634667z m99.84 172.970667H28.330667c-20.565333 0-28.330667 12.970667-28.330667 29.098666 0 16.213333 7.424 29.696 28.330667 29.696H1162.24c20.48 0 31.317333-13.226667 31.317333-29.354666 0-16.213333-10.752-29.44-31.317333-29.44z m-198.570667-432.810667l-223.232-367.786667a37.205333 37.205333 0 0 0-31.914666-17.92H486.485333a37.717333 37.717333 0 0 0-35.498666 21.76c-11.946667 21.162667-121.941333 201.216-221.184 363.093334a36.608 36.608 0 0 0 5.376 45.226666A513.962667 513.962667 0 0 0 596.48 724.736c135.68 0 265.557333-53.248 361.301333-147.968a34.986667 34.986667 0 0 0 5.973334-44.373333z m-366.933333 133.888c-107.008 0-231.850667-46.506667-311.466667-115.626667 20.565333-33.877333 197.973333-341.333333 203.605334-350.72h216.405333l203.008 350.72c-79.616 68.864-204.544 115.626667-311.466667 115.626667z m0-231.253333c37.888 0 74.24-14.762667 100.778667-41.216 9.557333-9.130667 13.397333-17.066667 10.154666-29.696-3.328-12.970667-13.653333-19.456-26.538666-23.210667-12.544-3.84-26.794667 3.157333-36.096 12.885333a68.864 68.864 0 0 1-96.256 0c-9.216-9.386667-22.357333-16.469333-36.096-12.885333-13.397333 3.413333-23.210667 10.24-26.453334 23.210667-3.413333 12.970667 0.256 20.565333 10.069334 29.696 26.282667 26.453333 62.634667 41.216 100.437333 41.216z m175.274667 75.349333c8.704-10.666667 12.8-19.2 10.24-29.781333-3.413333-12.885333-13.482667-24.064-26.624-26.197334-12.544-2.048-26.794667 6.229333-36.010667 15.957334a175.274667 175.274667 0 0 1-245.333333 0c-9.301333-9.386667-23.04-17.408-36.096-15.957334-13.141333 1.536-22.698667 13.568-26.453334 26.197334-3.072 9.728 0.256 20.650667 10.069334 29.781333a250.197333 250.197333 0 0 0 350.208 0z" p-id="2344" fill="#3880ff"></path></svg>