<?xml version="1.0" standalone="no"?><!DOCTYPE svg PUBLIC "-//W3C//DTD SVG 1.1//EN" "http://www.w3.org/Graphics/SVG/1.1/DTD/svg11.dtd"><svg t="1565168113455" class="icon" viewBox="0 0 1024 1024" version="1.1" xmlns="http://www.w3.org/2000/svg" p-id="12201" xmlns:xlink="http://www.w3.org/1999/xlink" width="200" height="200"><defs><style type="text/css"></style></defs><path d="M924.8 1004.8H96c-27.2 0-48-20.8-48-46.4v-800c0-25.6 22.4-46.4 48-46.4h80v46.4c0 51.2 43.2 92.8 96 92.8s96-41.6 96-92.8V112h48v46.4c0 51.2 43.2 92.8 96 92.8s96-41.6 96-92.8V112h48v46.4c0 51.2 43.2 92.8 96 92.8s96-41.6 96-92.8V112h80c27.2 0 48 20.8 48 46.4v800c-3.2 25.6-24 46.4-51.2 46.4zM798.4 374.4H224c-25.6 0-48 20.8-48 46.4s22.4 46.4 48 46.4h572.8c27.2 0 48-20.8 48-46.4s-20.8-46.4-46.4-46.4z m0 200H224c-25.6 0-48 20.8-48 46.4 0 25.6 22.4 46.4 48 46.4h572.8c27.2 0 48-20.8 48-46.4 0-25.6-20.8-46.4-46.4-46.4z m8 200H216c-22.4 0-40 17.6-40 38.4s17.6 38.4 40 38.4h588.8c20.8 0 40-17.6 40-38.4s-17.6-38.4-38.4-38.4z m-56-569.6c-27.2 0-48-20.8-48-46.4V65.6c0-25.6 20.8-46.4 48-46.4s48 20.8 48 46.4v92.8c0 25.6-22.4 46.4-48 46.4z m-240 0c-25.6 0-48-20.8-48-46.4V65.6c0-25.6 22.4-46.4 48-46.4s48 20.8 48 46.4v92.8c0 25.6-20.8 46.4-48 46.4z m-238.4 0c-25.6 0-48-20.8-48-46.4V65.6c0-25.6 22.4-46.4 48-46.4s48 20.8 48 46.4v92.8c0 25.6-20.8 46.4-48 46.4z" p-id="12202"></path></svg>