<?xml version="1.0" standalone="no"?><!DOCTYPE svg PUBLIC "-//W3C//DTD SVG 1.1//EN" "http://www.w3.org/Graphics/SVG/1.1/DTD/svg11.dtd"><svg t="1583664978853" class="icon" viewBox="0 0 1024 1024" version="1.1" xmlns="http://www.w3.org/2000/svg" p-id="12615" xmlns:xlink="http://www.w3.org/1999/xlink" width="200" height="200"><defs><style type="text/css"></style></defs><path d="M810.666667 981.333333H213.333333a170.666667 170.666667 0 0 1-170.666666-170.666666V213.333333a170.666667 170.666667 0 0 1 170.666666-170.666666h597.333334a170.666667 170.666667 0 0 1 170.666666 170.666666v597.333334a170.666667 170.666667 0 0 1-170.666666 170.666666z m128-768a128 128 0 0 0-128-128H213.333333a128 128 0 0 0-128 128v597.333334a128 128 0 0 0 128 128h597.333334a128 128 0 0 0 128-128V213.333333z m-170.666667 469.333334h-213.333333a42.666667 42.666667 0 0 1 0-85.333334h213.333333a42.666667 42.666667 0 0 1 0 85.333334z m0-256h-213.333333a42.666667 42.666667 0 0 1 0-85.333334h213.333333a42.666667 42.666667 0 0 1 0 85.333334z m-440.448 36.650666a32 32 0 0 1-45.269333 0L219.349333 400.384A32 32 0 0 1 264.533333 355.114667l40.362667 40.32L418.133333 282.282667a32 32 0 1 1 45.269334 45.269333zM341.333333 512a128 128 0 1 1-128 128 128 128 0 0 1 128-128z m0 213.333333a85.333333 85.333333 0 1 0-85.333333-85.333333 85.333333 85.333333 0 0 0 85.333333 85.333333z" fill="#3880ff" p-id="12616"></path></svg>