<?xml version="1.0" standalone="no"?><!DOCTYPE svg PUBLIC "-//W3C//DTD SVG 1.1//EN" "http://www.w3.org/Graphics/SVG/1.1/DTD/svg11.dtd"><svg t="1565168012411" class="icon" viewBox="0 0 1024 1024" version="1.1" xmlns="http://www.w3.org/2000/svg" p-id="11466" xmlns:xlink="http://www.w3.org/1999/xlink" width="200" height="200"><defs><style type="text/css"></style></defs><path d="M904.533333 384c42.666667 0 76.8 29.866667 76.8 68.266667v460.8c0 38.4-34.133333 68.266667-76.8 68.266666h-102.4c-42.666667 0-76.8-29.866667-76.8-68.266666V452.266667c0-38.4 34.133333-68.266667 76.8-68.266667h102.4z m-682.666666 85.333333c42.666667 0 76.8 29.866667 76.8 68.266667v371.2c0 42.666667-34.133333 72.533333-76.8 72.533333H119.466667c-42.666667 0-76.8-29.866667-76.8-68.266666v-371.2c0-42.666667 34.133333-72.533333 76.8-72.533334h102.4z m341.333333 128c42.666667 0 76.8 29.866667 76.8 64v256c0 34.133333-34.133333 64-76.8 64h-102.4c-42.666667 0-76.8-29.866667-76.8-64v-256c0-34.133333 34.133333-64 76.8-64h102.4zM776.533333 119.466667h-55.466666c-17.066667 0-34.133333-17.066667-34.133334-38.4s17.066667-38.4 34.133334-38.4h140.8c8.533333 0 17.066667 4.266667 25.6 12.8 4.266667 4.266667 4.266667 8.533333 8.533333 12.8v162.133333c0 21.333333-17.066667 38.4-34.133333 38.4s-34.133333-17.066667-34.133334-38.4V170.666667l-311.466666 290.133333c-8.533333 12.8-25.6 12.8-38.4 8.533333L149.333333 354.133333c-17.066667-8.533333-25.6-29.866667-17.066666-51.2 8.533333-17.066667 29.866667-25.6 46.933333-17.066666l307.2 102.4 290.133333-268.8z" fill="#333458" p-id="11467"></path></svg>