<?xml version="1.0" standalone="no"?><!DOCTYPE svg PUBLIC "-//W3C//DTD SVG 1.1//EN" "http://www.w3.org/Graphics/SVG/1.1/DTD/svg11.dtd"><svg t="1584944720939" class="icon" viewBox="0 0 1024 1024" version="1.1" xmlns="http://www.w3.org/2000/svg" p-id="3466" xmlns:xlink="http://www.w3.org/1999/xlink" width="512" height="512"><defs><style type="text/css"></style></defs><path d="M880.125 20.782h-720.32c-16.256 0-29.496 13.24-29.496 29.496 0 16.257 13.24 29.497 29.497 29.497h720.32c17.596 0 34.356 6.871 46.758 19.273 12.402 12.402 19.44 29.161 19.44 46.759v720.822c0 16.257 13.24 29.497 29.497 29.497 16.257 0 29.33-13.073 29.497-29.162V145.136c-0.168-32.848-13.408-64.356-36.703-87.651-23.463-23.631-55.306-36.703-88.49-36.703z" p-id="3467" fill="#3880ff"></path><path d="M106.51 1024h662.333c58.658 0 106.422-47.597 106.422-106.255v-663.17c0-28.155-11.229-55.306-31.173-75.25a106.575 106.575 0 0 0-75.25-31.172H106.512c-28.156 0-55.306 11.229-75.25 31.173C12.658 198.096 1.597 222.9 0.256 249.212v673.896c1.34 26.313 12.402 51.117 31.005 69.72C51.205 1012.77 78.355 1024 106.51 1024zM55.898 254.743c0-26.145 24.469-50.613 50.614-50.613l662.332-0.168c26.144 0 48.937 24.469 48.937 50.613v663.003c0 26.144-22.793 48.937-48.937 48.937H106.51c-26.145 0-50.614-22.793-50.614-48.937V254.743z" p-id="3468" fill="#3880ff"></path><path d="M374.158 601.83l-14.748 36.704h167.26l-14.75-36.704z" p-id="3469" fill="#3880ff"></path><path d="M608.455 739.593c2.179 7.374 9.05 12.234 16.76 11.899 5.027 0.168 9.887-1.676 13.575-4.86 3.351-2.682 5.363-7.04 5.195-11.397 0-2.849-0.67-5.698-1.844-8.212L460.637 323.457c-2.011-4.358-5.195-7.877-9.218-10.391s-8.882-3.855-13.575-3.855-9.385 1.173-13.407 3.687c-4.023 2.514-7.207 6.201-9.05 10.559L233.715 726.52c-1.341 2.347-2.012 5.028-2.012 7.71-0.167 4.525 2.012 9.05 5.531 11.899 3.855 3.352 8.715 5.363 13.91 5.195 7.542 0.336 14.581-4.525 16.76-11.899l47.261-106.087h7.207l14.078-31.34h-7.207l108.936-248.04 109.942 248.04h-1.843l14.078 31.34h1.843l46.256 106.255zM248.463 893.779H638.79c16.256 0 29.496-10.893 29.496-24.468s-13.24-24.47-29.496-24.47H248.463c-16.257 0-29.497 10.895-29.497 24.47 0 13.407 13.24 24.3 29.497 24.468z" p-id="3470" fill="#3880ff"></path><path d="M229.525 754.676c5.866 5.363 13.575 8.212 21.62 8.212 15.586-0.335 22.122-21.116 22.122-21.116-4.86 5.698-12.235 15.586-22.123 15.25-6.536 0.168-12.904-2.346-17.765-6.703-4.86-4.022-7.709-9.888-7.709-16.09 0-3.519 0.838-7.038 2.514-10.055l181.17-403.064a26.644 26.644 0 0 1 11.396-13.24c5.027-3.016 10.893-4.525 16.759-4.357 6.033 0 11.9 1.508 17.095 4.693 5.027 3.016 9.05 7.709 11.396 13.072l181.504 402.729c1.676 3.351 2.347 7.039 2.18 10.726 0.167 6.033-2.515 11.899-7.207 15.921-4.86 4.19-10.559 5.363-17.095 5.195-6.369 0.336-27.318-43.406-28.491-41.898 1.676 6.368 15.083 45.25 25.14 47.932 1.172 0.335 2.345 0.67 3.519 0.838 9.05 1.005 15.25-2.85 20.781-7.71 6.034-5.027 9.553-12.402 9.386-20.278a30.58 30.58 0 0 0-3.017-13.24L471.363 318.596c-2.85-6.368-7.71-11.731-13.575-15.418-12.234-7.374-27.318-7.542-39.72-0.335a33.89 33.89 0 0 0-13.91 15.921l-181.17 402.561c-2.01 4.022-3.016 8.38-3.184 12.737 0 8.045 3.52 15.586 9.72 20.614z" p-id="3471" fill="#3880ff"></path><path d="M624.712 757.023c6.536 0.167 12.904-2.012 17.765-6.369 4.692-3.855 7.374-9.72 7.206-15.921 0.168-3.687-0.67-7.375-2.179-10.726L466.168 320.943c-2.347-5.363-6.369-9.888-11.397-13.073-5.195-3.184-11.061-4.86-17.094-4.692-5.866 0-11.732 1.508-16.76 4.357a26.644 26.644 0 0 0-11.396 13.24L228.35 724.007c-1.675 3.184-2.513 6.536-2.513 10.055 0 6.201 2.849 12.235 7.709 16.09 4.86 4.357 11.229 6.703 17.765 6.703 9.888 0.335 18.938-5.698 22.122-15.251l46.927-109.774-5.196 1.34-47.261 106.088c-2.179 7.374-9.05 12.234-16.76 11.899a21.04 21.04 0 0 1-13.91-5.196c-3.52-2.849-5.698-7.206-5.53-11.899 0-2.681 0.67-5.363 2.01-7.71L415.22 323.29c1.676-4.357 4.86-8.212 9.05-10.558 4.022-2.347 8.715-3.687 13.408-3.687 4.86 0 9.552 1.34 13.575 3.854 4.022 2.514 7.206 6.201 9.217 10.391l181.672 403.734c1.174 2.514 1.844 5.363 1.844 8.212 0.168 4.358-1.844 8.548-5.195 11.397-3.688 3.352-8.548 5.028-13.576 4.86-7.709 0.335-14.58-4.525-16.759-11.9l-46.591-106.421h-1.844l46.76 103.74c1.34 2.682 10.222 18.77 13.574 23.799" p-id="3472" fill="#3880ff"></path><path d="M512.424 601.83l14.245 36.704H568.4l-14.58-36.704z m-182.008 0l-15.083 36.704h44.077l14.748-36.704z" p-id="3473" fill="#3880ff"></path></svg>