<?xml version="1.0" standalone="no"?><!DOCTYPE svg PUBLIC "-//W3C//DTD SVG 1.1//EN" "http://www.w3.org/Graphics/SVG/1.1/DTD/svg11.dtd"><svg t="1583632566349" class="icon" viewBox="0 0 1025 1024" version="1.1" xmlns="http://www.w3.org/2000/svg" p-id="7906" xmlns:xlink="http://www.w3.org/1999/xlink" width="200.1953125" height="200"><defs><style type="text/css"></style></defs><path d="M1001.516 217.92h-39.731v-47.79a22.474 22.474 0 0 0-14.6-21.054c-192.242-71.997-328.85-86.753-406.022-43.865-12.495 6.94-21.95 14.677-29.157 22.241-7.21-7.567-16.677-15.301-29.166-22.241-77.172-42.89-213.786-28.126-406.028 43.865a22.48 22.48 0 0 0-14.6 21.054v47.79H22.484C10.064 217.92 0 227.982 0 240.402v636.605c0 12.42 10.064 22.484 22.484 22.484H426.51v20.77c0 12.42 10.064 22.483 22.484 22.483H575.01c12.42 0 22.484-10.064 22.484-22.484v-20.77h404.025c12.42 0 22.484-10.063 22.484-22.483V240.403c-0.003-12.417-10.067-22.484-22.487-22.484z m-467.029-44.468c1.853-4.803 8.895-18.797 30.998-30.267 36.422-18.908 130.13-37.941 351.332 42.606v572.335C740.529 695.8 614.2 684.69 541.16 725.282a138.301 138.301 0 0 0-6.676 3.972V173.452z m-427.304 12.342c221.196-80.547 314.916-61.517 351.338-42.606 22.103 11.47 29.145 25.467 30.998 30.267v555.802a134.502 134.502 0 0 0-6.676-3.972c-73.04-40.592-199.396-29.446-375.663 32.865V185.794z m319.326 664.77v3.96H44.97V262.887h17.246V790.2c0 12.42 10.064 22.484 22.484 22.484 2.863 0 5.591-0.558 8.113-1.535-0.01 0.012-0.015 0.021-0.024 0.03 231.541-86.663 328.529-67.228 365.736-47.918 13.053 6.775 20.835 14.423 25.416 20.541-33.397 9.624-57.43 35.909-57.43 66.76z m126.016 47.213h-81.047v-47.214c0-12.168 16.644-25.722 40.525-25.722s40.525 13.557 40.525 25.722v47.214z m426.507-43.254H597.49v-3.96c0-30.851-24.043-57.124-57.437-66.748 4.578-6.124 12.364-13.778 25.425-20.553 37.192-19.313 134.15-38.748 365.593 47.873 0.113 0.042 4.562 1.559 8.226 1.553 12.42-0.021 22.484-10.064 22.484-22.484V262.888h17.247v591.635z" p-id="7907" fill="#3880ff"></path></svg>