<?xml version="1.0" standalone="no"?><!DOCTYPE svg PUBLIC "-//W3C//DTD SVG 1.1//EN" "http://www.w3.org/Graphics/SVG/1.1/DTD/svg11.dtd"><svg t="1584945057845" class="icon" viewBox="0 0 1024 1024" version="1.1" xmlns="http://www.w3.org/2000/svg" p-id="5177" xmlns:xlink="http://www.w3.org/1999/xlink" width="512" height="512"><defs><style type="text/css"></style></defs><path d="M635.904 776.533333a38.4 38.4 0 0 1 24.746667 10.325334 38.912 38.912 0 0 1 9.813333 25.173333c0 10.24-3.669333 18.688-9.898667 25.088a35.584 35.584 0 0 1-24.064 10.24H564.906667v3.84c0 33.365333-27.306667 60.586667-60.416 60.586667a60.757333 60.757333 0 0 1-60.586667-60.586667v-3.754667H196.266667c-22.186667 0-88.32-0.682667-106.837334-49.664-16.64-45.738667 22.869333-91.477333 35.84-104.96 3.072-3.925333 6.144-7.765333 9.301334-10.325333 18.517333-18.773333 67.925333-67.072 75.946666-313.173333 0-33.536 4.266667-64.426667 11.093334-92.842667a31.914667 31.914667 0 0 1 14.848-21.845333 32.085333 32.085333 0 0 1 25.258666-3.925334c17.322667 3.925333 29.013333 23.210667 24.149334 41.898667a417.109333 417.109333 0 0 0-9.898667 77.994667c-7.424 275.114667-69.973333 334.250667-95.146667 361.472a271.530667 271.530667 0 0 0-11.093333 13.312c-7.850667 9.728-5.802667 28.842667 10.410667 30.293333 4.693333 0.426667 10.069333 0.768 16.213333 0.853333h439.637333z m206.250667 1.28a107.52 107.52 0 0 0 14.336-1.365333c7.338667-1.28 10.666667-11.690667 7.253333-16.896-3.413333-5.12-8.021333-11.093333-14.165333-17.152l-8.021334-8.362667c-25.941333-26.453333-87.04-87.04-95.146666-361.472-2.474667-81.237333-25.941333-144.384-69.802667-186.282666-68.522667-66.389333-167.253333-61.866667-168.533333-61.866667H504.32c-0.512 0-49.749333-2.048-101.290667 20.736-24.149333 10.752-47.616 31.744-62.464 46.762667l421.802667 585.898666h79.786667z m54.357333-85.674666c16.042667 16.128 51.2 58.624 38.912 104.362666-10.496 30.293333-40.106667 47.786667-87.722667 51.541334h-2.474666a35.242667 35.242667 0 0 1-5.461334-0.341334h-27.136l56.832 79.616a36.522667 36.522667 0 0 1-6.826666 48.298667 34.133333 34.133333 0 0 1-20.309334 7.168 34.133333 34.133333 0 0 1-27.221333-14.250667L175.786667 78.08a36.522667 36.522667 0 0 1 6.826666-48.384 34.389333 34.389333 0 0 1 24.746667-6.4 30.549333 30.549333 0 0 1 21.589333 13.482667l70.826667 98.474666c27.818667-30.122667 53.930667-42.410667 53.930667-42.410666A295.082667 295.082667 0 0 1 471.04 56.149333V38.058667c0.597333-21.248 16.042667-37.376 35.84-37.973334a34.901333 34.901333 0 0 1 26.453333 10.24c6.826667 7.168 11.093333 16.810667 11.093334 27.136v18.688c44.544 4.522667 118.016 21.248 177.322666 78.592 57.429333 55.466667 88.32 133.973333 90.794667 235.178667 6.826667 245.504 56.149333 294.485333 74.666667 312.576 3.072 2.56 6.229333 5.802667 9.301333 9.642667z" p-id="5178" fill="#3880ff"></path></svg>