<?xml version="1.0" standalone="no"?><!DOCTYPE svg PUBLIC "-//W3C//DTD SVG 1.1//EN" "http://www.w3.org/Graphics/SVG/1.1/DTD/svg11.dtd"><svg t="1583631686707" class="icon" viewBox="0 0 1024 1024" version="1.1" xmlns="http://www.w3.org/2000/svg" p-id="5038" xmlns:xlink="http://www.w3.org/1999/xlink" width="200" height="200"><defs><style type="text/css"></style></defs><path d="M832 746.666667H192c-70.4 0-128-55.466667-128-121.6V249.6C64 183.466667 121.6 128 192 128h640c70.4 0 128 55.466667 128 121.6v375.466667c0 66.133333-57.6 121.6-128 121.6zM192 213.333333c-23.466667 0-42.666667 17.066667-42.666667 36.266667v375.466667c0 19.2 19.2 36.266667 42.666667 36.266666h640c23.466667 0 42.666667-17.066667 42.666667-36.266666V249.6c0-19.2-19.2-36.266667-42.666667-36.266667H192zM682.666667 917.333333H341.333333c-23.466667 0-42.666667-19.2-42.666666-42.666666s19.2-42.666667 42.666666-42.666667h341.333334c23.466667 0 42.666667 19.2 42.666666 42.666667s-19.2 42.666667-42.666666 42.666666z" p-id="5039" fill="#3880ff"></path><path d="M512 917.333333c-23.466667 0-42.666667-19.2-42.666667-42.666666v-170.666667c0-23.466667 19.2-42.666667 42.666667-42.666667s42.666667 19.2 42.666667 42.666667v170.666667c0 23.466667-19.2 42.666667-42.666667 42.666666z" p-id="5040" fill="#3880ff"></path></svg>