<?xml version="1.0" standalone="no"?><!DOCTYPE svg PUBLIC "-//W3C//DTD SVG 1.1//EN" "http://www.w3.org/Graphics/SVG/1.1/DTD/svg11.dtd"><svg t="1584945007051" class="icon" viewBox="0 0 1024 1024" version="1.1" xmlns="http://www.w3.org/2000/svg" p-id="4325" xmlns:xlink="http://www.w3.org/1999/xlink" width="512" height="512"><defs><style type="text/css"></style></defs><path d="M188.229818 635.159273V394.891636c0-179.432727 144.896-324.980364 323.770182-324.980363 178.874182 0 323.770182 145.547636 323.770182 324.980363v240.267637l54.737454 77.125818a93.090909 93.090909 0 0 1 6.842182 96.349091 92.718545 92.718545 0 0 1-82.478545 50.455273H209.128727a92.718545 92.718545 0 0 1-82.478545-50.408728 93.090909 93.090909 0 0 1 6.842182-96.349091l54.737454-77.172363z m567.621818 48.221091a70.050909 70.050909 0 0 1-13.172363-40.680728V394.891636c0-128.093091-103.330909-231.889455-230.679273-231.889454s-230.679273 103.796364-230.679273 231.889454v248.087273c-0.093091 14.522182-4.654545 28.625455-12.986182 40.122182l-58.786909 82.897454h604.904728l-58.600728-82.618181z" p-id="4326" fill="#3880ff"></path><path d="M610.257455 982.714182H451.863273a39.656727 39.656727 0 0 1-39.563637-39.703273c0-21.922909 17.687273-39.703273 39.563637-39.703273h158.394182a39.656727 39.656727 0 1 1 0 79.453091z" p-id="4327" fill="#3880ff"></path></svg>