<?xml version="1.0" standalone="no"?><!DOCTYPE svg PUBLIC "-//W3C//DTD SVG 1.1//EN" "http://www.w3.org/Graphics/SVG/1.1/DTD/svg11.dtd"><svg t="1583631959759" class="icon" viewBox="0 0 1025 1024" version="1.1" xmlns="http://www.w3.org/2000/svg" p-id="6252" xmlns:xlink="http://www.w3.org/1999/xlink" width="200.1953125" height="200"><defs><style type="text/css"></style></defs><path d="M513.009189 73.143171a73.142805 73.142805 0 0 1 30.171407 6.582852l404.479711 192.548434A18.285701 18.285701 0 0 1 951.866018 274.285884a18.285701 18.285701 0 0 1-3.474283 2.011427L543.180596 468.845745a73.142805 73.142805 0 0 1-60.342814 0L78.35807 276.297311A18.285701 18.285701 0 0 1 74.152359 274.285884a18.285701 18.285701 0 0 1 3.474283-2.011427L482.837782 79.726023A73.142805 73.142805 0 0 1 513.009189 73.143171m0-73.142805a143.725612 143.725612 0 0 0-61.622814 13.714276L46.906664 206.080219a73.142805 73.142805 0 0 0 0 136.411331l404.479711 192.365577a145.371325 145.371325 0 0 0 123.245627 0l404.479711-192.365577a73.142805 73.142805 0 0 0 0-136.411331L574.632002 13.714642A143.725612 143.725612 0 0 0 513.009189 0.000366z" p-id="6253" fill="#3880ff"></path><path d="M513.009189 773.485528a176.639874 176.639874 0 0 1-79.177087-18.285702L21.306683 550.217116a36.571402 36.571402 0 1 1 32.548548-65.462811l412.525419 204.799854a105.691353 105.691353 0 0 0 93.257077 0l412.525419-204.799854a36.571402 36.571402 0 0 1 32.548548 65.462811l-412.525419 204.799853A176.639874 176.639874 0 0 1 513.009189 773.485528z" p-id="6254" fill="#3880ff"></path><path d="M513.009189 1023.999634a179.017015 179.017015 0 0 1-79.177087-18.285701L21.306683 800.731222a36.571402 36.571402 0 1 1 32.548548-65.46281l412.525419 204.799854a105.691353 105.691353 0 0 0 93.257077 0l412.525419-204.799854a36.571402 36.571402 0 0 1 32.548548 65.46281L592.186275 1005.713933A179.017015 179.017015 0 0 1 513.009189 1023.999634z" p-id="6255" fill="#3880ff"></path></svg>