<?xml version="1.0" standalone="no"?><!DOCTYPE svg PUBLIC "-//W3C//DTD SVG 1.1//EN" "http://www.w3.org/Graphics/SVG/1.1/DTD/svg11.dtd"><svg t="1583666181778" class="icon" viewBox="0 0 1024 1024" version="1.1" xmlns="http://www.w3.org/2000/svg" p-id="24424" xmlns:xlink="http://www.w3.org/1999/xlink" width="200" height="200"><defs><style type="text/css"></style></defs><path d="M896.000538 1024 127.999462 1024c-70.685425 0-127.998745-57.314755-127.998745-128.001613l0-767.998207c0-70.686859 57.316189-128.000179 127.998745-128.000179l768.001076 0c70.686859 0 127.998745 57.31332 127.998745 128.000179l0 767.998207C1024.000717 966.685245 966.687397 1024 896.000538 1024L896.000538 1024zM960.027159 128.000179c0-35.372113-28.657377-64.058173-64.028056-64.058173L127.999462 63.942006c-35.341995 0-64.028056 28.686061-64.028056 64.058173l0 767.998207c0 35.31618 28.657377 64.002241 64.028056 64.002241l768.001076 0c35.341995 0 64.026622-28.630128 64.026622-64.002241L960.027159 128.000179 960.027159 128.000179zM799.999328 895.998387 223.999238 895.998387c-17.684622 0-32.027652-14.34303-32.027652-32.000403 0-17.713305 14.34303-32.054901 32.027652-32.054901l576.00009 0c17.68749 0 32.029087 14.341596 32.029087 32.054901C832.028414 881.655356 817.686818 895.998387 799.999328 895.998387L799.999328 895.998387zM535.855811 757.94188c-6.711867 6.683184-15.570671 9.542898-24.341991 9.141333-8.77132 0.457497-17.654505-2.45815-24.341991-9.141333L329.001234 566.571924c-12.54316-12.62921-12.54316-33.03013 0-45.600539 12.54316-12.630644 32.88528-12.630644 45.42844 0l105.569923 127.713347 0-488.68415c0-17.658807 14.34303-32.000403 32.000403-32.000403 17.686056 0 32.000403 14.341596 32.000403 32.000403l0 487.485193 104.544499-126.51439c12.541726-12.571843 32.886714-12.571843 45.454255 0 12.54316 12.627775 12.54316 32.971329 0 45.600539L535.855811 757.94188 535.855811 757.94188z" p-id="24425" fill="#3880ff"></path></svg>