<?xml version="1.0" standalone="no"?><!DOCTYPE svg PUBLIC "-//W3C//DTD SVG 1.1//EN" "http://www.w3.org/Graphics/SVG/1.1/DTD/svg11.dtd"><svg t="1583667185504" class="icon" viewBox="0 0 1024 1024" version="1.1" xmlns="http://www.w3.org/2000/svg" p-id="14472" xmlns:xlink="http://www.w3.org/1999/xlink" width="200" height="200"><defs><style type="text/css"></style></defs><path d="M847.296 93.546667H171.349333A102.528 102.528 0 0 0 69.12 195.776v637.824a102.528 102.528 0 0 0 102.229333 102.229333h675.946667a102.528 102.528 0 0 0 102.229333-102.229333V195.776c0.021333-56.234667-45.994667-102.229333-102.229333-102.229333z m66.581333 740.053333c0 36.714667-29.866667 66.581333-66.581333 66.581333H171.349333a66.645333 66.645333 0 0 1-66.581333-66.581333V195.776c0-36.714667 29.866667-66.581333 66.581333-66.581333h675.946667c36.714667 0 66.581333 29.866667 66.581333 66.581333v637.824z" fill="#3880ff" p-id="14473"></path><path d="M808.981333 320.021333a52.138667 52.138667 0 0 0-52.074666 52.074667c0 8.277333 2.112 15.978667 5.568 22.933333l-184.469334 193.386667a51.541333 51.541333 0 0 0-22.933333-5.568 51.626667 51.626667 0 0 0-29.397333 9.152l-136.426667-119.274667a52.138667 52.138667 0 0 0-51.050667-62.250666 52.138667 52.138667 0 0 0-52.074666 52.074666c0 6.058667 1.237333 11.797333 3.157333 17.216l-60.309333 59.392a51.477333 51.477333 0 0 0-23.061334-5.610666 52.138667 52.138667 0 0 0-52.074666 52.074666c0 28.714667 23.36 52.074667 52.074666 52.074667s52.074667-23.36 52.074667-52.074667c0-7.36-1.578667-14.336-4.352-20.693333l58.432-57.557333c7.701333 4.501333 16.554667 7.274667 26.090667 7.274666 12.096 0 23.082667-4.309333 31.936-11.242666l134.890666 117.930666a51.050667 51.050667 0 0 0-2.026666 13.589334 52.138667 52.138667 0 0 0 52.074666 52.074666 52.138667 52.138667 0 0 0 52.074667-52.074666c0-7.402667-1.6-14.4-4.394667-20.778667l185.408-194.389333c6.378667 2.794667 13.418667 4.416 20.821334 4.416a52.096 52.096 0 0 0 0.042666-104.149334z m-467.754666 158.656l0.298666-0.298666 0.213334 0.192-0.512 0.106666z" fill="#3880ff" p-id="14474"></path></svg>