<?xml version="1.0" standalone="no"?><!DOCTYPE svg PUBLIC "-//W3C//DTD SVG 1.1//EN" "http://www.w3.org/Graphics/SVG/1.1/DTD/svg11.dtd"><svg t="1565168185533" class="icon" viewBox="0 0 1024 1024" version="1.1" xmlns="http://www.w3.org/2000/svg" p-id="12836" xmlns:xlink="http://www.w3.org/1999/xlink" width="200" height="200"><defs><style type="text/css"></style></defs><path d="M234.24 531.84c23.808 2.688 46.272-6.016 62.144-21.952l206.592 75.392c2.048 36.864 30.08 68.032 67.52 72.256a76.416 76.416 0 0 0 84.608-77.12l174.4-129.088c8.768 4.992 18.368 8.256 28.864 9.536a76.544 76.544 0 0 0 84.224-68.224 77.312 77.312 0 0 0-67.136-85.568 76.8 76.8 0 0 0-84.352 68.224c-1.408 13.568 0.704 26.688 5.504 38.528l-158.848 117.76a75.52 75.52 0 0 0-50.112-27.84 76.16 76.16 0 0 0-71.552 33.216L318.4 464.896a77.12 77.12 0 0 0-67.072-86.784A76.48 76.48 0 0 0 167.04 446.272 77.312 77.312 0 0 0 234.24 531.84z m605.888-150.976a27.008 27.008 0 1 1 53.76 6.144 27.264 27.264 0 0 1-30.016 24.256 27.584 27.584 0 0 1-23.744-30.4z m-288 196.736a27.264 27.264 0 0 1 29.888-24.256 27.328 27.328 0 0 1 23.808 30.4A27.328 27.328 0 0 1 576 608a27.584 27.584 0 0 1-23.872-30.4zM216 451.904a27.2 27.2 0 0 1 29.824-24.256 27.456 27.456 0 0 1-6.016 54.528 27.264 27.264 0 0 1-23.808-30.272z m14.528 271.872a76.352 76.352 0 0 0 84.224-68.16 77.952 77.952 0 0 0-6.4-40.704l58.624-52.672-52.736-19.2-39.552 35.456a75.84 75.84 0 0 0-27.072-8.576 76.8 76.8 0 0 0-84.288 68.352 77.184 77.184 0 0 0 67.2 85.504z m644.736-15.872a76.544 76.544 0 0 0 84.224-68.16 77.056 77.056 0 0 0-67.264-85.568 74.88 74.88 0 0 0-51.264 12.864l-65.408-44.8-42.304 31.232 78.08 53.376c-1.536 4.992-2.56 10.24-3.264 15.488a77.248 77.248 0 0 0 67.2 85.568zM450.88 486.72l42.688-38.4a74.88 74.88 0 0 0 88.704 1.792l64.384 43.968 42.24-31.296-77.248-52.736a77.12 77.12 0 0 0-64.064-100.608 76.544 76.544 0 0 0-84.16 68.224c-1.152 10.048-0.256 19.84 2.24 29.056l-67.52 60.736 52.736 19.264zM1024 868.48v58.88H64v0.64H0v-832h64v772.48h960z" p-id="12837"></path></svg>