<?xml version="1.0" standalone="no"?><!DOCTYPE svg PUBLIC "-//W3C//DTD SVG 1.1//EN" "http://www.w3.org/Graphics/SVG/1.1/DTD/svg11.dtd"><svg t="1565168048789" class="icon" viewBox="0 0 1024 1024" version="1.1" xmlns="http://www.w3.org/2000/svg" p-id="11712" xmlns:xlink="http://www.w3.org/1999/xlink" width="200" height="200"><defs><style type="text/css"></style></defs><path d="M848.457143 581.558857a239.396571 239.396571 0 0 0-303.835429 230.4A239.177143 239.177143 0 0 0 673.060571 1024H117.028571a73.142857 73.142857 0 0 1-73.142857-73.142857V73.142857a73.142857 73.142857 0 0 1 73.142857-73.142857h432.274286l299.154286 203.702857v377.856z m-60.781714 26.331429a207.067429 207.067429 0 1 1 0 414.208 207.067429 207.067429 0 0 1 0-414.208z m129.462857 248.246857a24.210286 24.210286 0 0 0 0.292571-8.045714 12.361143 12.361143 0 0 0-4.169143-6.436572 26.843429 26.843429 0 0 0-3.291428-2.194286 28.306286 28.306286 0 0 1-13.531429-10.093714 27.282286 27.282286 0 0 1-5.12-16.530286c0-6.290286 2.194286-12.434286 6.144-17.334857a32.621714 32.621714 0 0 1 14.701714-10.605714 10.459429 10.459429 0 0 0 4.315429-3.510857c1.389714-1.755429 1.901714-4.169143 1.462857-7.314286a66.706286 66.706286 0 0 0-4.242286-15.945143 32.768 32.768 0 0 0-7.314285-11.776 8.484571 8.484571 0 0 0-5.485715-2.486857 8.484571 8.484571 0 0 0-5.412571 1.097143 35.693714 35.693714 0 0 1-17.993143 3.218286 24.941714 24.941714 0 0 1-16.384-7.314286 27.501714 27.501714 0 0 1-8.045714-15.579429 29.403429 29.403429 0 0 1 2.194286-16.896 15.872 15.872 0 0 0 1.097142-3.730285 6.290286 6.290286 0 0 0-0.804571-4.827429 26.916571 26.916571 0 0 0-5.997714-6.729143 35.035429 35.035429 0 0 0-8.192-4.973714 55.954286 55.954286 0 0 0-8.996572-2.998857 36.644571 36.644571 0 0 0-8.484571-1.097143c-1.609143 0-3.291429 0.731429-4.827429 2.340571a18.797714 18.797714 0 0 0-3.510857 4.534858 28.818286 28.818286 0 0 1-10.532571 13.750857 28.672 28.672 0 0 1-17.188572 5.412571 25.161143 25.161143 0 0 1-16.384-5.705143 33.206857 33.206857 0 0 1-10.020571-13.165714 14.116571 14.116571 0 0 0-2.925714-4.827429 7.168 7.168 0 0 0-5.632-2.340571 61.44 61.44 0 0 0-17.261715 3.876571 47.250286 47.250286 0 0 0-9.289143 4.827429 15.945143 15.945143 0 0 0-5.924571 6.802286 6.070857 6.070857 0 0 0-0.438857 3.876571 28.964571 28.964571 0 0 0 0.950857 3.876572l0.731429 5.558857a44.470857 44.470857 0 0 1-1.974858 18.139428 19.456 19.456 0 0 1-4.827428 8.118857 28.16 28.16 0 0 1-16.018286 7.972572 33.645714 33.645714 0 0 1-17.334857-2.121143 23.771429 23.771429 0 0 0-4.534857-1.097143 6.217143 6.217143 0 0 0-4.388572 1.097143 16.896 16.896 0 0 0-5.12 5.12 46.445714 46.445714 0 0 0-7.021714 16.237714 33.353143 33.353143 0 0 0-1.097143 8.045715c0 2.267429 0.585143 4.461714 1.609143 6.509714 1.170286 2.121143 2.486857 3.437714 4.169143 4.022857a41.252571 41.252571 0 0 1 14.994286 10.459429 25.234286 25.234286 0 0 1 0 33.938285 39.204571 39.204571 0 0 1-14.994286 10.971429c-3.145143 1.170286-4.973714 3.730286-5.558857 7.826286a22.601143 22.601143 0 0 0 0.512 8.411428c1.462857 6.729143 4.242286 13.092571 7.972571 18.870857 1.755429 2.633143 3.657143 4.388571 5.632 5.12a11.483429 11.483429 0 0 0 7.826286 0.512 46.153143 46.153143 0 0 1 11.922286-2.194285 38.985143 38.985143 0 0 1 10.532571 0.950857c3.657143 0.731429 6.948571 2.706286 9.435429 5.412571 4.242286 4.681143 6.582857 9.654857 7.094857 15.140572a27.574857 27.574857 0 0 1-2.413714 14.555428 16.822857 16.822857 0 0 0-2.048 7.314286c0 1.609143 0.585143 3.218286 1.536 4.534857 1.609143 2.194286 3.584 4.096 5.851428 5.558857a47.104 47.104 0 0 0 8.777143 4.900572c3.145143 1.316571 6.363429 2.486857 9.654857 3.437714a31.670857 31.670857 0 0 0 8.777143 1.389714 12.434286 12.434286 0 0 0 6.070857-1.536 9.362286 9.362286 0 0 0 4.169143-4.827428 33.718857 33.718857 0 0 1 10.752-14.628572 26.331429 26.331429 0 0 1 34.157714 0 37.302857 37.302857 0 0 1 10.678857 14.921143 10.459429 10.459429 0 0 0 2.998858 4.096c1.462857 1.316571 3.072 1.974857 4.754285 1.974857a48.566857 48.566857 0 0 0 25.307429-8.411428 20.626286 20.626286 0 0 0 5.266286-4.608 10.532571 10.532571 0 0 0 0.731428-11.117715 31.305143 31.305143 0 0 1-2.413714-16.822857 27.282286 27.282286 0 0 1 7.753143-15.872 16.822857 16.822857 0 0 1 7.314285-4.681143 40.96 40.96 0 0 1 8.630858-1.828571 32.329143 32.329143 0 0 1 8.484571 0.292571 60.708571 60.708571 0 0 1 6.948571 1.536c2.048 0.731429 3.876571 1.097143 5.558858 1.097143a13.385143 13.385143 0 0 0 5.851428-1.682286 17.042286 17.042286 0 0 0 6.070857-5.485714 48.274286 48.274286 0 0 0 7.460572-18.285714z m-85.065143-4.827429a59.977143 59.977143 0 0 1-42.861714 17.700572 58.953143 58.953143 0 0 1-42.642286-17.700572 62.537143 62.537143 0 0 1-12.873143-19.236571 58.953143 58.953143 0 0 1-4.754286-23.405714 60.196571 60.196571 0 0 1 83.821715-55.442286 60.123429 60.123429 0 0 1 19.309714 98.084571zM190.171429 421.302857c5.12 66.779429 30.573714 100.205714 76.214857 100.205714 25.819429 0 44.763429-8.630857 56.905143-25.892571 12.141714-17.261714 18.212571-38.546286 18.212571-63.926857 0-17.554286-2.194286-32.402286-6.656-44.690286a74.605714 74.605714 0 0 0-19.309714-30.061714c-8.411429-7.753143-22.089143-15.213714-40.96-22.235429-17.846857-6.509714-29.257143-12.434286-34.230857-17.92a28.745143 28.745143 0 0 1-7.460572-20.114285c0-8.045714 2.779429-14.848 8.265143-20.260572 5.412571-5.485714 13.238857-8.192 23.405714-8.192 10.093714 0 17.846857 3.145143 23.332572 9.362286 5.485714 6.217143 9.069714 17.188571 10.678857 32.914286l37.668571-2.633143c-0.731429-28.452571-7.314286-50.249143-19.529143-65.536C304.420571 227.035429 287.305143 219.428571 265.435429 219.428571a65.462857 65.462857 0 0 0-36.717715 9.728 64.512 64.512 0 0 0-23.259428 28.891429c-5.632 12.726857-8.484571 27.062857-8.484572 43.008 0 13.677714 2.194286 26.477714 6.582857 38.326857 4.388571 11.922286 10.24 21.504 17.773715 28.818286 7.387429 7.314286 19.090286 14.043429 35.108571 20.260571 17.846857 7.021714 29.110857 12.068571 33.792 15.067429 4.608 2.925714 8.045714 6.802286 10.386286 11.410286 2.194286 4.681143 3.364571 10.313143 3.364571 16.969142a42.203429 42.203429 0 0 1-9.728 28.379429 33.353143 33.353143 0 0 1-26.770285 11.410286c-22.966857 0-36.498286-18.651429-40.594286-55.954286L190.171429 421.302857zM373.028571 516.388571h37.522286V406.235429h24.649143c22.674286 0 38.692571-2.925714 47.981714-8.704 9.289143-5.778286 17.042286-15.798857 23.259429-30.061715 6.144-14.262857 9.289143-31.963429 9.289143-53.028571 0-23.259429-3.657143-42.276571-10.752-56.978286-7.241143-14.701714-16.310857-24.356571-27.355429-28.891428-6.948571-2.779429-21.650286-4.169143-44.178286-4.169143h-60.342857V516.388571z m37.522286-242.541714h18.285714c15.652571 0 25.965714 1.170286 30.793143 3.364572 4.900571 2.267429 8.923429 6.729143 12.214857 13.385142 3.364571 6.582857 4.973714 14.774857 4.973715 24.502858 0 9.508571-1.609143 17.554286-4.754286 24.137142a28.379429 28.379429 0 0 1-12.361143 13.677715c-4.973714 2.486857-14.482286 3.803429-28.379428 3.803428h-20.772572V273.773714z m255.268572 135.241143c-3.218286 21.504-8.484571 37.156571-15.652572 47.030857-7.314286 9.947429-15.798857 14.848-25.746286 14.848-13.531429 0-24.502857-7.753143-32.914285-23.259428-8.557714-15.579429-12.8-41.691429-12.8-78.482286 0-35.401143 4.388571-60.854857 13.019428-76.214857 8.704-15.433143 19.894857-23.113143 33.645715-23.113143 9.581714 0 17.92 4.169143 25.014857 12.653714 7.021714 8.411429 11.776 20.48 14.116571 36.278857l37.229714-13.897143c-4.681143-25.6-11.995429-44.909714-22.016-57.929142-14.043429-18.285714-31.451429-27.501714-52.370285-27.501715-25.6 0-46.006857 12.214857-61.147429 36.571429-17.481143 28.233143-26.185143 67.145143-26.185143 116.955428 0 47.104 8.704 84.553143 26.038857 112.274286 15.067429 24.064 34.742857 36.059429 59.026286 36.059429a62.390857 62.390857 0 0 0 48.713143-22.601143c13.238857-15.067429 22.674286-38.912 28.379429-71.606857l-36.425143-18.066286z" p-id="11713"></path></svg>