<?xml version="1.0" standalone="no"?><!DOCTYPE svg PUBLIC "-//W3C//DTD SVG 1.1//EN" "http://www.w3.org/Graphics/SVG/1.1/DTD/svg11.dtd"><svg t="1584944448366" class="icon" viewBox="0 0 1024 1024" version="1.1" xmlns="http://www.w3.org/2000/svg" p-id="2573" xmlns:xlink="http://www.w3.org/1999/xlink" width="512" height="512"><defs><style type="text/css"></style></defs><path d="M995.84 300.544L808.96 114.176c-13.824-13.824-33.28-20.992-52.736-19.456h-104.96l-7.168 4.096c-36.864 20.48-83.968 31.744-132.608 31.744S415.744 119.296 378.88 98.816l-7.168-4.096H272.896c-25.6 0-48.128 13.824-59.904 35.84l-184.832 184.32C15.36 327.68 8.192 344.576 8.192 362.496c0 17.92 7.168 34.816 19.968 47.616l134.656 135.168c11.264 11.264 26.112 17.92 41.472 19.456V890.88c0 37.376 30.72 68.096 68.096 68.096h477.696c37.376 0 68.096-30.72 68.096-68.096v-339.968c15.872-1.536 30.72-8.192 41.984-19.456l135.168-135.168c26.624-26.624 26.624-69.12 0.512-95.744zM952.32 352.768l-135.168 135.168c-1.536 1.536-3.072 1.536-4.096 1.536-1.024 0-2.56-0.512-4.096-1.536l-51.712-49.152V890.88c0 3.584-3.072 6.656-6.656 6.656H272.896c-3.584 0-6.656-3.072-6.656-6.656V454.656L214.528 501.76c-1.536 1.024-3.072 1.536-4.096 1.536-1.024 0-2.56-0.512-4.096-1.536L71.68 366.592c-1.536-1.536-1.536-3.072-1.536-4.096 0-1.024 0.512-2.56 1.536-4.096l186.368-186.368 6.144-5.12 2.56-6.656c0.512-2.048 2.56-4.096 6.144-4.096h83.968c45.056 23.552 98.304 35.84 155.136 35.84 56.832 0 110.08-12.288 155.136-35.84H752.128l4.608 0.512 4.608-0.512c1.536 0 3.072 0 5.12 1.536L952.32 344.576c2.048 2.048 2.048 5.632 0 8.192z" fill="#3880ff" p-id="2574"></path></svg>