<?xml version="1.0" standalone="no"?><!DOCTYPE svg PUBLIC "-//W3C//DTD SVG 1.1//EN" "http://www.w3.org/Graphics/SVG/1.1/DTD/svg11.dtd"><svg t="1583664886356" class="icon" viewBox="0 0 1024 1024" version="1.1" xmlns="http://www.w3.org/2000/svg" p-id="12312" xmlns:xlink="http://www.w3.org/1999/xlink" width="200" height="200"><defs><style type="text/css"></style></defs><path d="M96 64v384c19.2-16 41.6-28.8 64-38.4V128h768v512H608c0-105.6-64-198.4-160-236.8 9.6 0 16-3.2 22.4-9.6l67.2-60.8 89.6 83.2c0 9.6 3.2 16 9.6 22.4 12.8 12.8 32 12.8 44.8 0l6.4-6.4v-3.2l166.4-185.6c12.8-12.8 12.8-28.8 0-41.6s-32-12.8-44.8 0l-144 163.2-99.2-92.8c-12.8-12.8-35.2-12.8-48 0v3.2s-3.2 3.2-6.4 3.2L425.6 352c-12.8 12.8-12.8 28.8 0 41.6 0 0 3.2 3.2 6.4 3.2-28.8-6.4-54.4-12.8-80-12.8v256h249.6c3.2 22.4 6.4 41.6 6.4 64h384V64H96z m316.8 515.2v-108.8c51.2 19.2 89.6 57.6 108.8 108.8h-108.8z" fill="#3880ff" p-id="12313"></path><path d="M480 704H288v-256c-140.8 0-256 115.2-256 256s115.2 256 256 256 256-115.2 256-256h-64z m-192 192c-105.6 0-192-86.4-192-192 0-80 51.2-153.6 128-179.2V768h243.2c-25.6 76.8-99.2 128-179.2 128z" fill="#3880ff" p-id="12314"></path></svg>