<?xml version="1.0" standalone="no"?><!DOCTYPE svg PUBLIC "-//W3C//DTD SVG 1.1//EN" "http://www.w3.org/Graphics/SVG/1.1/DTD/svg11.dtd"><svg t="1583664692780" class="icon" viewBox="0 0 1024 1024" version="1.1" xmlns="http://www.w3.org/2000/svg" p-id="11797" xmlns:xlink="http://www.w3.org/1999/xlink" width="200" height="200"><defs><style type="text/css"></style></defs><path d="M896 256h-32.853333l-185.173334-185.173333a85.333333 85.333333 0 0 0-120.746666 0l-64 64L404.053333 85.333333a82.346667 82.346667 0 0 0-42.666666-11.52 85.333333 85.333333 0 0 0-73.813334 42.666667L205.653333 256H128a85.333333 85.333333 0 0 0-85.333333 85.333333v512a85.333333 85.333333 0 0 0 85.333333 85.333334h768a85.333333 85.333333 0 0 0 85.333333-85.333334V341.333333a85.333333 85.333333 0 0 0-85.333333-85.333333z m-278.613333-124.586667L742.4 256h-249.6l14.506667-14.506667 62.293333-62.293333z m-256 26.026667l69.546666 40.106667L372.053333 256H304.213333zM896 853.333333H128V341.333333h768z" p-id="11798" fill="#3880ff"></path><path d="M682.666667 682.666667a128 128 0 1 0-128-128 128 128 0 0 0 128 128z m0-170.666667a42.666667 42.666667 0 1 1-42.666667 42.666667 42.666667 42.666667 0 0 1 42.666667-42.666667z" p-id="11799" fill="#3880ff"></path></svg>